<svg width="22" height="33" viewBox="0 0 22 33" fill="none" xmlns="http://www.w3.org/2000/svg">
<path d="M21.5715 0L21.5311 24.1289C21.5311 27.9825 18.3427 31.1037 13.1538 31.1037C12.46 31.1037 11.7864 31.0338 11.142 30.9009C12.5431 29.9566 13.329 28.485 13.329 26.8354L13.3581 8.97144C13.3581 8.97144 7.76507 10.0712 7.19252 14.6279C6.99044 12.7912 5.95086 11.518 4.77881 10.6503C4.77881 5.1246 4.78105 0 4.78105 0C4.78105 0 12.5072 1.47383 13.1897 7.63958C13.9689 1.48735 21.5737 0 21.5737 0H21.5715Z" fill="#C4D2A0"/>
<path d="M13.3559 8.9707L13.3268 26.8347C13.3268 28.4843 12.5409 29.9536 11.1398 30.9001C10.1205 31.5897 8.77102 31.9999 7.16338 31.9999C3.75949 31.9999 1 29.6877 1 26.8347C1 26.7175 1.00449 8.9707 1.00449 8.9707C1.00449 8.9707 3.03425 9.36057 4.77661 10.6496C5.94867 11.5172 6.98825 12.7905 7.19032 14.6271C7.76288 10.0727 13.3559 8.9707 13.3559 8.9707Z" stroke="#C4D2A0" stroke-miterlimit="10"/>
</svg>
